<?xml version="1.0" encoding="utf-8"?>
<!-- Generator: Adobe Illustrator 25.2.0, SVG Export Plug-In . SVG Version: 6.00 Build 0)  -->
<svg version="1.1" id="Logo" xmlns="http://www.w3.org/2000/svg" xmlns:xlink="http://www.w3.org/1999/xlink" x="0px" y="0px"
	 viewBox="0 0 182.2 158.5" style="enable-background:new 0 0 182.2 158.5;" xml:space="preserve">
<style type="text/css">
	.st0{fill:url(#SVGID_1_);}
	.st1{fill:url(#SVGID_2_);}
	.st2{fill:url(#SVGID_3_);}
	.st3{fill:url(#SVGID_4_);}
	.st4{fill:url(#SVGID_5_);}
	.st5{fill:url(#SVGID_6_);}
	.st6{fill:url(#SVGID_7_);}
	.st7{fill:#8E40DA;}
	.st8{fill:#8830EF;}
	.st9{fill:url(#SVGID_8_);}
	.st10{fill:#B559F7;}
	.st11{fill:#AC6EF4;}
	.st12{fill:#5C1AA8;}
	.st13{fill:#560AC1;}
</style>
<linearGradient id="SVGID_1_" gradientUnits="userSpaceOnUse" x1="168.74" y1="80.76" x2="168.74" y2="80.76" gradientTransform="matrix(1 0 0 -1 0 160)">
	<stop  offset="0" style="stop-color:#E7FD34"/>
	<stop  offset="0.87" style="stop-color:#6E9C13"/>
</linearGradient>
<polygon class="st0" points="168.7,79.2 168.7,79.2 168.7,79.2 "/>
<linearGradient id="SVGID_2_" gradientUnits="userSpaceOnUse" x1="183.321" y1="77.5748" x2="154.171" y2="83.9448" gradientTransform="matrix(1 0 0 -1 0 160)">
	<stop  offset="0" style="stop-color:#E7FD34"/>
	<stop  offset="0.87" style="stop-color:#6E9C13"/>
</linearGradient>
<polygon class="st1" points="168.8,79.2 168.7,79.2 168.7,79.2 "/>
<linearGradient id="SVGID_3_" gradientUnits="userSpaceOnUse" x1="22.57" y1="150.21" x2="22.57" y2="150.21" gradientTransform="matrix(1 0 0 -1 0 160)">
	<stop  offset="0" style="stop-color:#E7FD34"/>
	<stop  offset="0.87" style="stop-color:#6E9C13"/>
</linearGradient>
<polygon class="st2" points="22.6,9.8 22.6,9.8 22.6,9.8 "/>
<linearGradient id="SVGID_4_" gradientUnits="userSpaceOnUse" x1="35.88" y1="147.3" x2="9.25" y2="153.12" gradientTransform="matrix(1 0 0 -1 0 160)">
	<stop  offset="0" style="stop-color:#E7FD34"/>
	<stop  offset="0.87" style="stop-color:#6E9C13"/>
</linearGradient>
<polygon class="st3" points="22.6,9.8 22.6,9.8 22.6,9.8 "/>
<linearGradient id="SVGID_5_" gradientUnits="userSpaceOnUse" x1="293.6887" y1="-313.1158" x2="196.2357" y2="-291.8338" gradientTransform="matrix(1 0 0 -1 -240 -260.76)">
	<stop  offset="0" style="stop-color:#E7FD34"/>
	<stop  offset="0.87" style="stop-color:#6E9C13"/>
</linearGradient>
<path class="st4" d="M1.5,40.7c-0.1,0.2-0.1,0.4-0.1,0.5L1.5,40.7z"/>
<linearGradient id="SVGID_6_" gradientUnits="userSpaceOnUse" x1="1.52" y1="119.32" x2="1.52" y2="119.32" gradientTransform="matrix(1 0 0 -1 0 160)">
	<stop  offset="0" style="stop-color:#E7FD34"/>
	<stop  offset="0.87" style="stop-color:#6E9C13"/>
</linearGradient>
<polygon class="st5" points="1.5,40.7 1.5,40.7 1.5,40.7 "/>
<linearGradient id="SVGID_7_" gradientUnits="userSpaceOnUse" x1="1.52" y1="119.31" x2="1.52" y2="119.31" gradientTransform="matrix(1 0 0 -1 0 160)">
	<stop  offset="0" style="stop-color:#E7FD34"/>
	<stop  offset="0.87" style="stop-color:#6E9C13"/>
</linearGradient>
<polygon class="st6" points="1.5,40.7 1.5,40.7 1.5,40.7 "/>
<path class="st7" d="M168.8,17.8L168.8,17.8l-73,77.6l2,35.5l84.4-73.6c0-0.6,0.1-1.2,0.1-1.9C182.8,41.6,178,28.1,168.8,17.8z"/>
<path class="st8" d="M22.6,9.8L22.6,9.8c-2.5,1.8-4.8,3.7-6.9,5.8c-1.2,1.2-2.4,2.5-3.4,3.8C7.1,25.6,3.4,32.9,1.5,40.7L84.7,111
	l2.4-35.2L22.6,9.8z"/>
<linearGradient id="SVGID_8_" gradientUnits="userSpaceOnUse" x1="827.5591" y1="-368.3942" x2="132.3291" y2="-216.5642" gradientTransform="matrix(1 0 0 -1 -240 -260.76)">
	<stop  offset="0" style="stop-color:#E7FD34"/>
	<stop  offset="0.87" style="stop-color:#6E9C13"/>
</linearGradient>
<path class="st9" d="M168.7,17.8L168.7,17.8c-1.1-1.7-2.5-3.2-4.2-4.2c0.7,0.7,1.5,1.4,2.2,2.1S168.1,17.1,168.7,17.8z"/>
<path class="st10" d="M168.7,17.8c-0.7-0.8-1.4-1.5-2.1-2.2s-1.4-1.4-2.2-2.1c-21.1-18.9-53.3-18-73.3,2.1l0,0L95,82.9L168.7,17.8z"
	/>
<path class="st11" d="M28.1,6.3c-1.9,1-3.8,2.2-5.5,3.4l65.2,55.9l3.4-50C74.5-1,48.9-4.8,28.1,6.3z"/>
<path class="st12" d="M98.5,143l0.9,15.5l67.3-67.3c9-9,14.5-20.9,15.5-33.6c0-0.1,0-0.1,0-0.2L98.5,143z"/>
<path class="st13" d="M1.5,40.7l-0.1,0.5c-4.2,18,1.2,36.9,14.2,49.9l66,66l2.3-34.2L1.5,40.7z"/>
</svg>
