<svg id="Logo" xmlns="http://www.w3.org/2000/svg" xmlns:xlink="http://www.w3.org/1999/xlink" viewBox="0 0 520 158.48"><defs><style>.cls-1{fill:url(#linear-gradient);}.cls-2{fill:url(#linear-gradient-2);}.cls-3{fill:url(#linear-gradient-3);}.cls-4{fill:url(#linear-gradient-4);}.cls-5{fill:url(#linear-gradient-5);}.cls-6{fill:url(#linear-gradient-6);}.cls-7{fill:#8e40da;}.cls-8{fill:#8830ef;}.cls-9{fill:url(#linear-gradient-8);}.cls-10{fill:#b559f7;}.cls-11{fill:#ac6ef4;}.cls-12{fill:#5c1aa8;}.cls-13{fill:#560ac1;}.cls-14{fill:#232626;}</style><linearGradient id="linear-gradient" x1="170.33" y1="79.59" x2="167.16" y2="78.9" gradientUnits="userSpaceOnUse"><stop offset="0" stop-color="#e7fd34"/><stop offset="0.87" stop-color="#6e9c13"/></linearGradient><linearGradient id="linear-gradient-2" x1="183.32" y1="82.43" x2="154.17" y2="76.06" xlink:href="#linear-gradient"/><linearGradient id="linear-gradient-3" x1="27" y1="10.75" x2="18.13" y2="8.82" xlink:href="#linear-gradient"/><linearGradient id="linear-gradient-4" x1="35.88" y1="12.7" x2="9.25" y2="6.88" xlink:href="#linear-gradient"/><linearGradient id="linear-gradient-5" x1="293.69" y1="473.11" x2="189.24" y2="450.3" xlink:href="#linear-gradient"/><linearGradient id="linear-gradient-6" x1="1.52" y1="40.68" x2="1.52" y2="40.68" xlink:href="#linear-gradient"/><linearGradient id="linear-gradient-8" x1="827.56" y1="528.39" x2="132.33" y2="376.56" xlink:href="#linear-gradient"/></defs><polygon class="cls-1" points="168.74 79.24 168.74 79.24 168.74 79.24 168.74 79.24"/><polygon class="cls-2" points="168.75 79.24 168.74 79.24 168.74 79.24 168.75 79.24"/><polygon class="cls-3" points="22.57 9.79 22.57 9.79 22.57 9.79 22.57 9.79"/><polygon class="cls-4" points="22.57 9.79 22.56 9.79 22.57 9.79 22.57 9.79"/><path class="cls-5" d="M241.52,461.44a3.35,3.35,0,0,0-.12.54l.12-.54Z" transform="translate(-240 -420.76)"/><rect class="cls-6" x="1.52" y="40.68"/><polygon class="cls-6" points="1.52 40.69 1.52 40.69 1.52 40.69 1.52 40.69"/><path class="cls-7" d="M408.75,438.59h0l-73,77.57,2,35.52,84.42-73.59c0-.62.08-1.25.1-1.88A53.25,53.25,0,0,0,408.75,438.59Z" transform="translate(-240 -420.76)"/><path class="cls-8" d="M262.57,430.54h0a54.28,54.28,0,0,0-6.93,5.84c-1.21,1.22-2.36,2.49-3.44,3.79a53.13,53.13,0,0,0-10.67,21.26l83.21,70.36,2.36-35.18Z" transform="translate(-240 -420.76)"/><path class="cls-9" d="M408.74,438.59h0a14.12,14.12,0,0,0-4.25-4.25c.74.67,1.47,1.35,2.18,2.06S408.08,437.84,408.74,438.59Z" transform="translate(-240 -420.76)"/><path class="cls-10" d="M408.74,438.59c-.66-.75-1.35-1.48-2.07-2.2s-1.44-1.39-2.18-2.06a53.4,53.4,0,0,0-73.32,2.06h0l3.86,67.3Z" transform="translate(-240 -420.76)"/><path class="cls-11" d="M268.1,427.11a54.61,54.61,0,0,0-5.53,3.43l65.21,55.89,3.36-50A53.41,53.41,0,0,0,268.1,427.11Z" transform="translate(-240 -420.76)"/><path class="cls-12" d="M338.45,563.78l.88,15.46,67.34-67.34a53.18,53.18,0,0,0,15.48-33.6,1.23,1.23,0,0,1,0-.19Z" transform="translate(-240 -420.76)"/><path class="cls-13" d="M241.52,461.44l-.12.54a53.31,53.31,0,0,0,14.23,49.92l66,66,2.3-34.18Z" transform="translate(-240 -420.76)"/><path class="cls-14" d="M477.1,446.15a9.82,9.82,0,0,1-3.11,7.64,10.57,10.57,0,0,1-7.36,2.83,10.72,10.72,0,0,1-7.5-2.83,9.79,9.79,0,0,1-3.12-7.64,10,10,0,0,1,3.12-7.78,10.72,10.72,0,0,1,7.5-2.83,10.57,10.57,0,0,1,7.36,2.83A10,10,0,0,1,477.1,446.15Zm-1.84,95.67H458.14v-74h17.12Z" transform="translate(-240 -420.76)"/><path class="cls-14" d="M551.26,443.74h17.83v98.08H551.26V498.37h-42.6v43.45H490.83V443.74h17.83V483h42.6Z" transform="translate(-240 -420.76)"/><path class="cls-14" d="M580.55,505.17a46.64,46.64,0,0,1,2.9-17.13,35.86,35.86,0,0,1,7.71-12.24,31.88,31.88,0,0,1,11-7.36A34.22,34.22,0,0,1,614.94,466q15.28,0,23.85,9.49t8.56,28.3c0,.94,0,2-.07,3.18s-.12,2.25-.21,3.19H598.24q.71,8.91,6.3,13.8t16.2,4.88a53.55,53.55,0,0,0,11.39-1.13,47.08,47.08,0,0,0,8.14-2.41l2.27,14a27,27,0,0,1-3.9,1.49,53.1,53.1,0,0,1-5.66,1.41c-2.12.43-4.41.78-6.86,1.07a66,66,0,0,1-7.5.42,45.45,45.45,0,0,1-17-2.9,31.42,31.42,0,0,1-11.89-8.07,33,33,0,0,1-6.94-12.17A49.68,49.68,0,0,1,580.55,505.17Zm49.67-7.65a22.53,22.53,0,0,0-1-6.72,16.16,16.16,0,0,0-2.9-5.52,13.81,13.81,0,0,0-4.67-3.68,15,15,0,0,0-6.58-1.34,15.31,15.31,0,0,0-6.93,1.48,15.79,15.79,0,0,0-5,3.9,17.62,17.62,0,0,0-3.18,5.51,29.49,29.49,0,0,0-1.56,6.37Z" transform="translate(-240 -420.76)"/><path class="cls-14" d="M684.14,543.24a47,47,0,0,1-12.66-1.7,19.56,19.56,0,0,1-8-4.46,15.75,15.75,0,0,1-4.17-7.22A36.33,36.33,0,0,1,658.1,520v-85.2L675.23,432v84.77a23.56,23.56,0,0,0,.49,5.24,8.38,8.38,0,0,0,1.77,3.61,8,8,0,0,0,3.47,2.26,26.75,26.75,0,0,0,5.59,1.2Z" transform="translate(-240 -420.76)"/><path class="cls-14" d="M760,504.88a52.5,52.5,0,0,1-2.19,15.57,36.56,36.56,0,0,1-6.3,12.17,28,28,0,0,1-10.26,7.93,33.13,33.13,0,0,1-13.94,2.83,34.46,34.46,0,0,1-9.63-1.28,35.75,35.75,0,0,1-7.21-2.83V568H693.34V470.21q5.24-1.41,12.88-2.69a98,98,0,0,1,16.13-1.27,43,43,0,0,1,15.71,2.69,32.68,32.68,0,0,1,11.82,7.71,34,34,0,0,1,7.5,12.17A46.36,46.36,0,0,1,760,504.88Zm-17.55.29q0-11.48-5.16-17.84T720.66,481c-1.61,0-3.28.07-5,.21a27.51,27.51,0,0,0-5.16.92v42.31a26.14,26.14,0,0,0,6,2.9,23.45,23.45,0,0,0,8,1.35q9.33,0,13.65-6.37T742.45,505.17Z" transform="translate(-240 -420.76)"/></svg>
