<svg id="Logo" xmlns="http://www.w3.org/2000/svg" xmlns:xlink="http://www.w3.org/1999/xlink" viewBox="0 0 378.28 110.09"><defs><style>.cls-1{fill:url(#linear-gradient);}.cls-2{fill:url(#linear-gradient-2);}.cls-3{fill:url(#linear-gradient-3);}.cls-4{fill:url(#linear-gradient-4);}.cls-5{fill:url(#linear-gradient-5);}.cls-6{fill:url(#linear-gradient-6);}.cls-7{fill:#8e40da;}.cls-8{fill:#8830ef;}.cls-9{fill:url(#linear-gradient-8);}.cls-10{fill:#b559f7;}.cls-11{fill:#ac6ef4;}.cls-12{fill:#5c1aa8;}.cls-13{fill:#560ac1;}.cls-14{fill:#232626;}</style><linearGradient id="linear-gradient" x1="118.32" y1="55.28" x2="116.11" y2="54.8" gradientUnits="userSpaceOnUse"><stop offset="0" stop-color="#e7fd34"/><stop offset="0.87" stop-color="#6e9c13"/></linearGradient><linearGradient id="linear-gradient-2" x1="127.34" y1="57.26" x2="107.09" y2="52.83" xlink:href="#linear-gradient"/><linearGradient id="linear-gradient-3" x1="18.75" y1="7.47" x2="12.6" y2="6.13" xlink:href="#linear-gradient"/><linearGradient id="linear-gradient-4" x1="24.92" y1="8.82" x2="6.43" y2="4.78" xlink:href="#linear-gradient"/><linearGradient id="linear-gradient-5" x1="269.29" y1="481.32" x2="196.74" y2="465.48" xlink:href="#linear-gradient"/><linearGradient id="linear-gradient-6" x1="1.06" y1="28.26" x2="1.06" y2="28.26" xlink:href="#linear-gradient"/><linearGradient id="linear-gradient-8" x1="640.14" y1="519.72" x2="157.21" y2="414.25" xlink:href="#linear-gradient"/></defs><polygon class="cls-1" points="117.22 55.05 117.22 55.04 117.22 55.05 117.22 55.05"/><polygon class="cls-2" points="117.22 55.05 117.22 55.04 117.22 55.04 117.22 55.05"/><polygon class="cls-3" points="15.68 6.8 15.68 6.8 15.68 6.8 15.68 6.8"/><polygon class="cls-4" points="15.68 6.8 15.67 6.8 15.68 6.8 15.68 6.8"/><path class="cls-5" d="M233.06,473.22a2.51,2.51,0,0,0-.09.37l.09-.37Z" transform="translate(-232 -444.96)"/><rect class="cls-6" x="1.06" y="28.26"/><polygon class="cls-6" points="1.06 28.26 1.06 28.26 1.06 28.26 1.06 28.26"/><path class="cls-7" d="M349.22,457.34h0l-50.73,53.89,1.41,24.67,58.64-51.12c0-.43,0-.87.07-1.31A37,37,0,0,0,349.22,457.34Z" transform="translate(-232 -444.96)"/><path class="cls-8" d="M247.68,451.75h0a35.93,35.93,0,0,0-4.81,4.06,34.79,34.79,0,0,0-2.39,2.63,36.75,36.75,0,0,0-7.41,14.77l57.8,48.87,1.64-24.44Z" transform="translate(-232 -444.96)"/><path class="cls-9" d="M349.22,457.34h0a9.83,9.83,0,0,0-3-3c.52.47,1,.94,1.52,1.44S348.75,456.82,349.22,457.34Z" transform="translate(-232 -444.96)"/><path class="cls-10" d="M349.22,457.34c-.47-.52-1-1-1.44-1.52s-1-1-1.52-1.44a37.09,37.09,0,0,0-50.93,1.44h0L298,502.56Z" transform="translate(-232 -444.96)"/><path class="cls-11" d="M251.52,449.37a36.49,36.49,0,0,0-3.84,2.38L293,490.58l2.34-34.76A37.1,37.1,0,0,0,251.52,449.37Z" transform="translate(-232 -444.96)"/><path class="cls-12" d="M300.38,544.3,301,555l46.78-46.77a36.93,36.93,0,0,0,10.75-23.34.53.53,0,0,1,0-.13Z" transform="translate(-232 -444.96)"/><path class="cls-13" d="M233.06,473.22l-.09.37a37.08,37.08,0,0,0,9.89,34.68l45.84,45.82,1.6-23.74Z" transform="translate(-232 -444.96)"/><path class="cls-14" d="M371.82,462.14h12.32v67.75H371.82Z" transform="translate(-232 -444.96)"/><path class="cls-14" d="M437.23,462.14h12.32v67.75H437.23v-30H407.8v30H395.48V462.14H407.8v27.08h29.43Z" transform="translate(-232 -444.96)"/><path class="cls-14" d="M460.89,529.89V462.14h43.5V472.6H473.21v16.72H501v10.26H473.21v19.85h33.53v10.46Z" transform="translate(-232 -444.96)"/><path class="cls-14" d="M556.12,519.24v10.65H513.29V462.14h12.32v57.1Z" transform="translate(-232 -444.96)"/><path class="cls-14" d="M579.78,461.45q14.76,0,22.63,5.38t7.87,16.82a22.84,22.84,0,0,1-2.1,10.21,17.71,17.71,0,0,1-6.11,6.95,28.57,28.57,0,0,1-9.78,4,62.23,62.23,0,0,1-13.2,1.27h-6.16v23.85H560.61V463.12a60.48,60.48,0,0,1,9.53-1.33C573.63,461.57,576.84,461.45,579.78,461.45Zm.88,10.66q-4.7,0-7.73.29v23.08h6q8.9,0,13.68-2.5t4.79-9.43A11.14,11.14,0,0,0,596.1,478a9.09,9.09,0,0,0-3.52-3.52,16.48,16.48,0,0,0-5.33-1.81A38.14,38.14,0,0,0,580.66,472.11Z" transform="translate(-232 -444.96)"/></svg>
