<?xml version="1.0" encoding="utf-8"?>
<!-- Generator: Adobe Illustrator 26.3.1, SVG Export Plug-In . SVG Version: 6.00 Build 0)  -->
<svg version="1.1" id="Logo" xmlns="http://www.w3.org/2000/svg" xmlns:xlink="http://www.w3.org/1999/xlink" x="0px" y="0px"
	 viewBox="0 0 378.3 110.1" style="enable-background:new 0 0 378.3 110.1;" xml:space="preserve">
<style type="text/css">
	.st0{fill:url(#SVGID_1_);}
	.st1{fill:url(#SVGID_00000013901667801159059210000008727655665929573771_);}
	.st2{fill:url(#SVGID_00000183943113545073483240000000688652995096300713_);}
	.st3{fill:url(#SVGID_00000165212953384712972220000012993370345991026623_);}
	.st4{fill:url(#SVGID_00000132780750303758643120000012337560154104749716_);}
	.st5{fill:url(#SVGID_00000044177434515709785870000008539768535147489719_);}
	.st6{fill:url(#SVGID_00000049919925737397427530000003188238552314065082_);}
	.st7{fill:#8E40DA;}
	.st8{fill:#8830EF;}
	.st9{fill:url(#SVGID_00000026150506700892331640000017563595421414165949_);}
	.st10{fill:#B559F7;}
	.st11{fill:#AC6EF4;}
	.st12{fill:#5C1AA8;}
	.st13{fill:#560AC1;}
	.st14{fill:#FFFFFF;}
</style>
<linearGradient id="SVGID_1_" gradientUnits="userSpaceOnUse" x1="118.3192" y1="56.7163" x2="116.1092" y2="57.1963" gradientTransform="matrix(1 0 0 -1 0 112)">
	<stop  offset="0" style="stop-color:#E7FD34"/>
	<stop  offset="0.87" style="stop-color:#6E9C13"/>
</linearGradient>
<polygon class="st0" points="117.2,55 117.2,55 117.2,55 "/>
<linearGradient id="SVGID_00000084513631549019112300000016283274121515949952_" gradientUnits="userSpaceOnUse" x1="127.3402" y1="54.741" x2="110.6411" y2="58.3942" gradientTransform="matrix(1 0 0 -1 0 112)">
	<stop  offset="0" style="stop-color:#E7FD34"/>
	<stop  offset="0.87" style="stop-color:#6E9C13"/>
</linearGradient>
<polygon style="fill:url(#SVGID_00000084513631549019112300000016283274121515949952_);" points="117.2,55 117.2,55 117.2,55 "/>
<linearGradient id="SVGID_00000006674114603464999230000015030587800411191737_" gradientUnits="userSpaceOnUse" x1="15.68" y1="105.2" x2="15.68" y2="105.2" gradientTransform="matrix(1 0 0 -1 0 112)">
	<stop  offset="0" style="stop-color:#E7FD34"/>
	<stop  offset="0.87" style="stop-color:#6E9C13"/>
</linearGradient>
<polygon style="fill:url(#SVGID_00000006674114603464999230000015030587800411191737_);" points="15.7,6.8 15.7,6.8 15.7,6.8 "/>
<linearGradient id="SVGID_00000177442813437226120080000004577670980850804875_" gradientUnits="userSpaceOnUse" x1="24.92" y1="103.18" x2="6.43" y2="107.22" gradientTransform="matrix(1 0 0 -1 0 112)">
	<stop  offset="0" style="stop-color:#E7FD34"/>
	<stop  offset="0.87" style="stop-color:#6E9C13"/>
</linearGradient>
<polygon style="fill:url(#SVGID_00000177442813437226120080000004577670980850804875_);" points="15.7,6.8 15.7,6.8 15.7,6.8 "/>
<linearGradient id="SVGID_00000145768343528535892970000011881190689714490016_" gradientUnits="userSpaceOnUse" x1="269.289" y1="-369.3248" x2="196.739" y2="-353.4848" gradientTransform="matrix(1 0 0 -1 -232 -332.96)">
	<stop  offset="0" style="stop-color:#E7FD34"/>
	<stop  offset="0.87" style="stop-color:#6E9C13"/>
</linearGradient>
<path style="fill:url(#SVGID_00000145768343528535892970000011881190689714490016_);" d="M1.1,28.3C1,28.4,1,28.5,1,28.6L1.1,28.3z"
	/>
<linearGradient id="SVGID_00000125564699893645830950000001243913543619503543_" gradientUnits="userSpaceOnUse" x1="1.06" y1="83.74" x2="1.06" y2="83.74" gradientTransform="matrix(1 0 0 -1 0 112)">
	<stop  offset="0" style="stop-color:#E7FD34"/>
	<stop  offset="0.87" style="stop-color:#6E9C13"/>
</linearGradient>
<polygon style="fill:url(#SVGID_00000125564699893645830950000001243913543619503543_);" points="1.1,28.3 1.1,28.3 1.1,28.3 "/>
<linearGradient id="SVGID_00000008134172533335525410000013336702436592089523_" gradientUnits="userSpaceOnUse" x1="1.06" y1="83.74" x2="1.06" y2="83.74" gradientTransform="matrix(1 0 0 -1 0 112)">
	<stop  offset="0" style="stop-color:#E7FD34"/>
	<stop  offset="0.87" style="stop-color:#6E9C13"/>
</linearGradient>
<polygon style="fill:url(#SVGID_00000008134172533335525410000013336702436592089523_);" points="1.1,28.3 1.1,28.3 1.1,28.3 "/>
<path class="st7" d="M117.2,12.4L117.2,12.4L66.5,66.3l1.4,24.7l58.6-51.1c0-0.4,0-0.9,0.1-1.3C127,28.9,123.6,19.5,117.2,12.4z"/>
<path class="st8" d="M15.7,6.8L15.7,6.8C14,8,12.4,9.4,10.9,10.9c-0.8,0.8-1.6,1.7-2.4,2.6c-3.6,4.3-6.1,9.3-7.4,14.8l57.8,48.9
	l1.6-24.4L15.7,6.8z"/>
<linearGradient id="SVGID_00000018924114637046684750000003423347054457152432_" gradientUnits="userSpaceOnUse" x1="640.1435" y1="-407.7041" x2="157.2135" y2="-302.2341" gradientTransform="matrix(1 0 0 -1 -232 -332.96)">
	<stop  offset="0" style="stop-color:#E7FD34"/>
	<stop  offset="0.87" style="stop-color:#6E9C13"/>
</linearGradient>
<path style="fill:url(#SVGID_00000018924114637046684750000003423347054457152432_);" d="M117.2,12.4L117.2,12.4
	c-0.8-1.2-1.8-2.2-3-3c0.5,0.5,1,0.9,1.5,1.4S116.8,11.9,117.2,12.4z"/>
<path class="st10" d="M117.2,12.4c-0.5-0.5-1-1-1.4-1.5s-1-1-1.5-1.4C99.6-3.7,77.2-3,63.3,10.9l0,0L66,57.6L117.2,12.4z"/>
<path class="st11" d="M19.5,4.4c-1.3,0.7-2.6,1.5-3.8,2.4L61,45.6l2.3-34.8C51.8-0.7,33.9-3.4,19.5,4.4z"/>
<path class="st12" d="M68.4,99.3L69,110l46.8-46.8c6.3-6.2,10.1-14.5,10.8-23.3c0,0,0-0.1,0-0.1L68.4,99.3z"/>
<path class="st13" d="M1.1,28.3L1,28.6C-2,41.1,1.8,54.2,10.9,63.3l45.8,45.8l1.6-23.7L1.1,28.3z"/>
<path class="st14" d="M139.8,17.2h12.3v67.8h-12.3V17.2z"/>
<path class="st14" d="M205.2,17.2h12.3v67.8h-12.3v-30h-29.4v30h-12.3V17.2h12.3v27.1h29.4L205.2,17.2z"/>
<path class="st14" d="M228.9,84.9V17.2h43.5v10.5h-31.2v16.7H269v10.3h-27.8v19.8h33.5v10.5H228.9z"/>
<path class="st14" d="M324.1,74.3v10.7h-42.8V17.2h12.3v57.1H324.1z"/>
<path class="st14" d="M347.8,16.5c9.8,0,17.4,1.8,22.6,5.4c5.2,3.6,7.9,9.2,7.9,16.8c0.1,3.5-0.6,7-2.1,10.2c-1.4,2.8-3.5,5.2-6.1,7
	c-3,1.9-6.3,3.3-9.8,4c-4.3,0.9-8.8,1.3-13.2,1.3h-6.2V85h-12.3V18.2c3.1-0.7,6.3-1.1,9.5-1.3C341.6,16.6,344.8,16.5,347.8,16.5z
	 M348.7,27.2c-3.1,0-5.7,0.1-7.7,0.3v23.1h6c5.9,0,10.5-0.8,13.7-2.5c3.2-1.7,4.8-4.8,4.8-9.4c0.1-1.9-0.4-3.8-1.3-5.6
	c-0.8-1.5-2-2.7-3.5-3.5c-1.7-0.9-3.5-1.5-5.3-1.8C353.1,27.3,350.9,27.1,348.7,27.2L348.7,27.2z"/>
</svg>
