<?xml version="1.0" encoding="utf-8"?>
<!-- Generator: Adobe Illustrator 26.0.2, SVG Export Plug-In . SVG Version: 6.00 Build 0)  -->
<svg version="1.1" id="Logo" xmlns="http://www.w3.org/2000/svg" xmlns:xlink="http://www.w3.org/1999/xlink" x="0px" y="0px"
	 viewBox="0 0 520 158.5" style="enable-background:new 0 0 520 158.5;" xml:space="preserve">
<style type="text/css">
	.st0{fill:url(#SVGID_1_);}
	.st1{fill:url(#SVGID_00000134946011050509330880000013066026710888938941_);}
	.st2{fill:url(#SVGID_00000047049697515515159890000009200539768043536819_);}
	.st3{fill:url(#SVGID_00000039843187563947813190000001309903074621000377_);}
	.st4{fill:url(#SVGID_00000129163309853330112920000000619891482203691403_);}
	.st5{fill:url(#SVGID_00000157309910529277397090000012564261954647862955_);}
	.st6{fill:url(#SVGID_00000031206418109188782440000012083093181292349615_);}
	.st7{fill:#8E40DA;}
	.st8{fill:#8830EF;}
	.st9{fill:url(#SVGID_00000018213362067004229600000004938568618146694281_);}
	.st10{fill:#B559F7;}
	.st11{fill:#AC6EF4;}
	.st12{fill:#5C1AA8;}
	.st13{fill:#560AC1;}
	.st14{fill:#FFFFFF;}
</style>
<linearGradient id="SVGID_1_" gradientUnits="userSpaceOnUse" x1="168.74" y1="80.76" x2="168.74" y2="80.76" gradientTransform="matrix(1 0 0 -1 0 160)">
	<stop  offset="0" style="stop-color:#E7FD34"/>
	<stop  offset="0.87" style="stop-color:#6E9C13"/>
</linearGradient>
<polygon class="st0" points="168.7,79.2 168.7,79.2 168.7,79.2 "/>
<linearGradient id="SVGID_00000090260306158410897910000008939129192012145806_" gradientUnits="userSpaceOnUse" x1="183.321" y1="77.5748" x2="154.171" y2="83.9448" gradientTransform="matrix(1 0 0 -1 0 160)">
	<stop  offset="0" style="stop-color:#E7FD34"/>
	<stop  offset="0.87" style="stop-color:#6E9C13"/>
</linearGradient>
<polygon style="fill:url(#SVGID_00000090260306158410897910000008939129192012145806_);" points="168.8,79.2 168.7,79.2 168.7,79.2 
	"/>
<linearGradient id="SVGID_00000083086989662912718780000002517544675744605100_" gradientUnits="userSpaceOnUse" x1="22.57" y1="150.21" x2="22.57" y2="150.21" gradientTransform="matrix(1 0 0 -1 0 160)">
	<stop  offset="0" style="stop-color:#E7FD34"/>
	<stop  offset="0.87" style="stop-color:#6E9C13"/>
</linearGradient>
<polygon style="fill:url(#SVGID_00000083086989662912718780000002517544675744605100_);" points="22.6,9.8 22.6,9.8 22.6,9.8 "/>
<linearGradient id="SVGID_00000057864267729701253320000013103536904385492399_" gradientUnits="userSpaceOnUse" x1="35.88" y1="147.3" x2="9.25" y2="153.12" gradientTransform="matrix(1 0 0 -1 0 160)">
	<stop  offset="0" style="stop-color:#E7FD34"/>
	<stop  offset="0.87" style="stop-color:#6E9C13"/>
</linearGradient>
<polygon style="fill:url(#SVGID_00000057864267729701253320000013103536904385492399_);" points="22.6,9.8 22.6,9.8 22.6,9.8 "/>
<linearGradient id="SVGID_00000072248388504494046710000002970719337506759592_" gradientUnits="userSpaceOnUse" x1="293.6887" y1="-313.1158" x2="196.2357" y2="-291.8338" gradientTransform="matrix(1 0 0 -1 -240 -260.76)">
	<stop  offset="0" style="stop-color:#E7FD34"/>
	<stop  offset="0.87" style="stop-color:#6E9C13"/>
</linearGradient>
<path style="fill:url(#SVGID_00000072248388504494046710000002970719337506759592_);" d="M1.5,40.7c-0.1,0.2-0.1,0.4-0.1,0.5
	L1.5,40.7z"/>
<linearGradient id="SVGID_00000023273823702795242560000002167522028619845797_" gradientUnits="userSpaceOnUse" x1="1.52" y1="119.32" x2="1.52" y2="119.32" gradientTransform="matrix(1 0 0 -1 0 160)">
	<stop  offset="0" style="stop-color:#E7FD34"/>
	<stop  offset="0.87" style="stop-color:#6E9C13"/>
</linearGradient>
<polygon style="fill:url(#SVGID_00000023273823702795242560000002167522028619845797_);" points="1.5,40.7 1.5,40.7 1.5,40.7 "/>
<linearGradient id="SVGID_00000160874857280309494160000017487887213586448045_" gradientUnits="userSpaceOnUse" x1="1.52" y1="119.31" x2="1.52" y2="119.31" gradientTransform="matrix(1 0 0 -1 0 160)">
	<stop  offset="0" style="stop-color:#E7FD34"/>
	<stop  offset="0.87" style="stop-color:#6E9C13"/>
</linearGradient>
<polygon style="fill:url(#SVGID_00000160874857280309494160000017487887213586448045_);" points="1.5,40.7 1.5,40.7 1.5,40.7 "/>
<path class="st7" d="M168.8,17.8L168.8,17.8l-73,77.6l2,35.5l84.4-73.6c0-0.6,0.1-1.2,0.1-1.9C182.8,41.6,178,28.1,168.8,17.8z"/>
<path class="st8" d="M22.6,9.8L22.6,9.8c-2.5,1.8-4.8,3.7-6.9,5.8c-1.2,1.2-2.4,2.5-3.4,3.8C7.1,25.6,3.4,32.9,1.5,40.7L84.7,111
	l2.4-35.2L22.6,9.8z"/>
<linearGradient id="SVGID_00000157305563024821445030000003620555121471789440_" gradientUnits="userSpaceOnUse" x1="827.5591" y1="-368.3942" x2="132.3291" y2="-216.5642" gradientTransform="matrix(1 0 0 -1 -240 -260.76)">
	<stop  offset="0" style="stop-color:#E7FD34"/>
	<stop  offset="0.87" style="stop-color:#6E9C13"/>
</linearGradient>
<path style="fill:url(#SVGID_00000157305563024821445030000003620555121471789440_);" d="M168.7,17.8L168.7,17.8
	c-1.1-1.7-2.5-3.2-4.2-4.2c0.7,0.7,1.5,1.4,2.2,2.1S168.1,17.1,168.7,17.8z"/>
<path class="st10" d="M168.7,17.8c-0.7-0.8-1.4-1.5-2.1-2.2s-1.4-1.4-2.2-2.1c-21.1-18.9-53.3-18-73.3,2.1l0,0L95,82.9L168.7,17.8z"
	/>
<path class="st11" d="M28.1,6.3c-1.9,1-3.8,2.2-5.5,3.4l65.2,55.9l3.4-50C74.5-1,48.9-4.8,28.1,6.3z"/>
<path class="st12" d="M98.5,143l0.9,15.5l67.3-67.3c9-9,14.5-20.9,15.5-33.6c0-0.1,0-0.1,0-0.2L98.5,143z"/>
<path class="st13" d="M1.5,40.7l-0.1,0.5c-4.2,18,1.2,36.9,14.2,49.9l66,66l2.3-34.2L1.5,40.7z"/>
<path class="st14" d="M237.1,25.4c0.1,2.9-1,5.7-3.1,7.6c-2,1.9-4.6,2.9-7.4,2.8c-2.8,0.1-5.5-1-7.5-2.8c-2.1-2-3.3-4.8-3.1-7.6
	c-0.1-2.9,1-5.8,3.1-7.8c2-1.9,4.7-2.9,7.5-2.8c2.7,0,5.4,1,7.4,2.8C236.1,19.6,237.3,22.5,237.1,25.4z M235.3,121.1h-17.1v-74h17.1
	V121.1z"/>
<path class="st14" d="M311.3,23h17.8v98.1h-17.8V77.6h-42.6v43.5h-17.8V23h17.8v39.3h42.6L311.3,23z"/>
<path class="st14" d="M340.5,84.4c-0.1-5.8,0.9-11.7,2.9-17.1c1.7-4.6,4.3-8.7,7.7-12.2c3.1-3.2,6.9-5.7,11-7.4
	c4.1-1.6,8.4-2.5,12.8-2.4c10.2,0,18.1,3.2,23.8,9.5c5.7,6.3,8.6,15.8,8.6,28.3c0,0.9,0,2-0.1,3.2s-0.1,2.2-0.2,3.2h-48.8
	c0.5,5.9,2.6,10.5,6.3,13.8c3.7,3.3,9.1,4.9,16.2,4.9c3.8,0,7.6-0.3,11.4-1.1c2.8-0.6,5.5-1.4,8.1-2.4l2.3,14
	c-1.3,0.6-2.6,1.1-3.9,1.5c-1.9,0.6-3.7,1-5.7,1.4c-2.1,0.4-4.4,0.8-6.9,1.1c-2.5,0.3-5,0.4-7.5,0.4c-5.8,0.1-11.6-0.9-17-2.9
	c-4.5-1.7-8.6-4.5-11.9-8.1c-3.2-3.5-5.5-7.7-6.9-12.2C341.2,94.8,340.5,89.6,340.5,84.4z M390.2,76.8c0-2.3-0.3-4.5-1-6.7
	c-0.6-2-1.6-3.9-2.9-5.5c-1.3-1.6-2.9-2.8-4.7-3.7c-2.1-0.9-4.3-1.4-6.6-1.3c-2.4-0.1-4.8,0.5-6.9,1.5c-1.9,0.9-3.6,2.3-5,3.9
	c-1.4,1.6-2.5,3.5-3.2,5.5c-0.8,2.1-1.3,4.2-1.6,6.4L390.2,76.8z"/>
<path class="st14" d="M444.1,122.5c-4.3,0-8.5-0.6-12.7-1.7c-3-0.8-5.7-2.4-8-4.5c-2-2-3.5-4.5-4.2-7.2c-0.9-3.2-1.3-6.5-1.2-9.9V14
	l17.1-2.8V96c0,1.8,0.1,3.5,0.5,5.2c0.3,1.3,0.9,2.6,1.8,3.6c0.9,1,2.1,1.8,3.5,2.3c1.8,0.6,3.7,1,5.6,1.2L444.1,122.5z"/>
<path class="st14" d="M520,84.1c0.1,5.3-0.7,10.5-2.2,15.6c-1.3,4.4-3.5,8.5-6.3,12.2c-2.8,3.4-6.3,6.1-10.3,7.9
	c-4.4,1.9-9.1,2.9-13.9,2.8c-3.3,0-6.5-0.4-9.6-1.3c-2.5-0.7-4.9-1.6-7.2-2.8v28.7h-17.1V49.4c3.5-0.9,7.8-1.8,12.9-2.7
	c5.3-0.9,10.7-1.3,16.1-1.3c5.4-0.1,10.7,0.8,15.7,2.7c4.5,1.7,8.5,4.3,11.8,7.7c3.3,3.5,5.9,7.6,7.5,12.2
	C519.2,73.2,520.1,78.7,520,84.1z M502.5,84.4c0-7.7-1.7-13.6-5.2-17.8c-3.4-4.2-9-6.4-16.6-6.3c-1.6,0-3.3,0.1-5,0.2
	c-1.7,0.1-3.5,0.4-5.2,0.9v42.3c1.9,1.2,3.9,2.2,6,2.9c2.6,0.9,5.3,1.4,8,1.3c6.2,0,10.8-2.1,13.7-6.4
	C501,97.3,502.5,91.6,502.5,84.4z"/>
</svg>
