<svg xmlns="http://www.w3.org/2000/svg" width="4184.283" height="10062.313" viewBox="0 0 4184.283 10062.313">
  <g id="Group_146" data-name="Group 146" transform="translate(6544.73 -9049.276)">
    <path id="Path_5" data-name="Path 5" d="M678.706,14.036c68,54.206,115.225,134.558,162.448,227.026,46.594,93.106,93.817,198.329,85.631,305.465-7.556,106.5-70.52,214.91-162.448,288.247s-212.819,112.238-321.118,95.02c-108.928-17.218-205.264-89.918-299.71-162.617C49.692,694.478-42.865,621.778-71.2,529.31S-64.273,324.6-15.161,231.5C34.581,138.391,98.8,64.416,175.621,12.761c76.816-51.017,165.6-80.352,255.006-80.352C520.665-68.229,610.075-40.169,678.706,14.036Z" transform="translate(-4554.09 9777.602)" fill="#6862f4" opacity="0.11"/>
    <path id="Path_9" data-name="Path 9" d="M827.636,8.322c81.327,50.412,137.8,125.14,194.281,211.136,55.724,86.59,112.2,184.448,102.412,284.085-9.036,99.044-84.339,199.868-194.281,268.072S675.525,876,546,859.984C415.73,843.971,300.517,776.36,187.563,708.749,75.362,641.138-35.333,573.527-69.219,487.53S-60.936,297.152-2.2,210.562C57.289,123.973,134.1,55.176,225.968,7.136,317.837-40.31,424.014-67.592,530.944-67.592,638.627-68.185,745.556-42.089,827.636,8.322Z" transform="translate(-5527.717 10350.359)" fill="#1b8a00" opacity="0.11"/>
    <path id="Path_7" data-name="Path 7" d="M969.3,31.011c94,65.476,159.282,162.536,224.561,274.231,64.409,112.465,129.688,239.567,118.373,368.979-10.445,128.642-97.484,259.595-224.561,348.18s-294.192,135.575-443.9,114.776c-150.577-20.8-283.747-108.614-414.306-196.429C99.779,852.932-28.168,765.117-67.335,653.422s9.574-247.27,77.465-359.735C78.89,181.222,167.67,91.865,273.857,29.47,380.045-32.155,502.77-67.589,626.365-67.589,750.831-68.359,874.427-34.465,969.3,31.011Z" transform="translate(-5597.379 12257.878)" fill="#6862f4" opacity="0.1"/>
    <path id="Path_1102" data-name="Path 1102" d="M969.3,31.011c94,65.476,159.282,162.536,224.561,274.231,64.409,112.465,129.688,239.567,118.373,368.979-10.445,128.642-97.484,259.595-224.561,348.18s-294.192,135.575-443.9,114.776c-150.577-20.8-283.747-108.614-414.306-196.429C99.779,852.932-28.168,765.117-67.335,653.422s9.574-247.27,77.465-359.735C78.89,181.222,167.67,91.865,273.857,29.47,380.045-32.155,502.77-67.589,626.365-67.589,750.831-68.359,874.427-34.465,969.3,31.011Z" transform="translate(-3823.967 9266.878)" fill="#6862f4" opacity="0.1"/>
    <path id="Path_182" data-name="Path 182" d="M969.3,31.011c94,65.476,159.282,162.536,224.561,274.231,64.409,112.465,129.688,239.567,118.373,368.979-10.445,128.642-97.484,259.595-224.561,348.18s-294.192,135.575-443.9,114.776c-150.577-20.8-283.747-108.614-414.306-196.429C99.779,852.932-28.168,765.117-67.335,653.422s9.574-247.27,77.465-359.735C78.89,181.222,167.67,91.865,273.857,29.47,380.045-32.155,502.77-67.589,626.365-67.589,750.831-68.359,874.427-34.465,969.3,31.011Z" transform="translate(-5639.967 15104.379)" fill="#6862f4" opacity="0.1"/>
    <path id="Path_8" data-name="Path 8" d="M916.828,36.091c89.307,68.85,151.326,170.909,213.345,288.358,61.192,118.259,123.211,251.908,112.461,387.987-9.923,135.269-92.615,272.968-213.345,366.117s-279.5,142.559-421.729,120.689c-143.057-21.87-269.576-114.209-393.614-206.549C90.735,900.355-30.822,808.016-68.033,690.566s9.1-260.008,73.6-378.267C70.889,194.04,155.235,100.081,256.119,34.471,357-30.328,473.6-67.588,591.022-67.588,709.271-68.4,826.694-32.758,916.828,36.091Z" transform="translate(-4202.555 12865.71)" fill="#e903ca" opacity="0.07"/>
    <path id="Path_1103" data-name="Path 1103" d="M916.828,36.091c89.307,68.85,151.326,170.909,213.345,288.358,61.192,118.259,123.211,251.908,112.461,387.987-9.923,135.269-92.615,272.968-213.345,366.117s-279.5,142.559-421.729,120.689c-143.057-21.87-269.576-114.209-393.614-206.549C90.735,900.355-30.822,808.016-68.033,690.566s9.1-260.008,73.6-378.267C70.889,194.04,155.235,100.081,256.119,34.471,357-30.328,473.6-67.588,591.022-67.588,709.271-68.4,826.694-32.758,916.828,36.091Z" transform="translate(-5374.742 17757.211)" fill="#e903ca" opacity="0.07"/>
    <path id="Path_184" data-name="Path 184" d="M916.828,36.091c89.307,68.85,151.326,170.909,213.345,288.358,61.192,118.259,123.211,251.908,112.461,387.987-9.923,135.269-92.615,272.968-213.345,366.117s-279.5,142.559-421.729,120.689c-143.057-21.87-269.576-114.209-393.614-206.549C90.735,900.355-30.822,808.016-68.033,690.566s9.1-260.008,73.6-378.267C70.889,194.04,155.235,100.081,256.119,34.471,357-30.328,473.6-67.588,591.022-67.588,709.271-68.4,826.694-32.758,916.828,36.091Z" transform="translate(-4202.555 15712.21)" fill="#e903ca" opacity="0.07"/>
    <path id="Path_10" data-name="Path 10" d="M971.813,31.819c94.227,66.013,159.663,163.868,225.1,276.478,64.563,113.387,130,241.53,118.656,372-10.47,129.7-97.717,261.722-225.1,351.034s-294.9,136.686-444.961,115.717c-150.938-20.969-284.426-109.5-415.3-198.039-130-88.535-258.252-177.07-297.513-289.681s9.6-249.3,77.65-362.684C79.273,183.261,168.266,93.172,274.707,30.266c106.442-62.13,229.46-97.855,353.352-97.855C752.822-68.365,876.714-34.194,971.813,31.819Z" transform="translate(-5435.717 13318.378)" fill="#0b60b9" opacity="0.11"/>
    <path id="Path_1104" data-name="Path 1104" d="M971.813,31.819c94.227,66.013,159.663,163.868,225.1,276.478,64.563,113.387,130,241.53,118.656,372-10.47,129.7-97.717,261.722-225.1,351.034s-294.9,136.686-444.961,115.717c-150.938-20.969-284.426-109.5-415.3-198.039-130-88.535-258.252-177.07-297.513-289.681s9.6-249.3,77.65-362.684C79.273,183.261,168.266,93.172,274.707,30.266c106.442-62.13,229.46-97.855,353.352-97.855C752.822-68.365,876.714-34.194,971.813,31.819Z" transform="translate(-4554.09 16984.191)" fill="#0b60b9" opacity="0.11"/>
    <path id="Path_13" data-name="Path 13" d="M971.813,31.819c94.227,66.013,159.663,163.868,225.1,276.478,64.563,113.387,130,241.53,118.656,372-10.47,129.7-97.717,261.722-225.1,351.034s-294.9,136.686-444.961,115.717c-150.938-20.969-284.426-109.5-415.3-198.039-130-88.535-258.252-177.07-297.513-289.681s9.6-249.3,77.65-362.684C79.273,183.261,168.266,93.172,274.707,30.266c106.442-62.13,229.46-97.855,353.352-97.855C752.822-68.365,876.714-34.194,971.813,31.819Z" transform="translate(-5435.717 11131.378)" fill="#883d99" opacity="0.11"/>
    <path id="Path_1101" data-name="Path 1101" d="M971.813,31.819c94.227,66.013,159.663,163.868,225.1,276.478,64.563,113.387,130,241.53,118.656,372-10.47,129.7-97.717,261.722-225.1,351.034s-294.9,136.686-444.961,115.717c-150.938-20.969-284.426-109.5-415.3-198.039-130-88.535-258.252-177.07-297.513-289.681s9.6-249.3,77.65-362.684C79.273,183.261,168.266,93.172,274.707,30.266c106.442-62.13,229.46-97.855,353.352-97.855C752.822-68.365,876.714-34.194,971.813,31.819Z" transform="translate(-6011.717 9412.378)" fill="#883d99" opacity="0.11"/>
    <path id="Path_11" data-name="Path 11" d="M1025.292,22.846C1124.3,82.9,1193.062,171.923,1261.82,274.369,1329.662,377.522,1398.42,494.1,1386.5,612.8c-11,117.99-102.679,238.1-236.529,319.35S840.1,1056.494,682.417,1037.418c-158.6-19.076-298.87-99.62-436.386-180.164C109.43,776.71-25.336,696.166-66.591,593.719S-56.506,366.924,15,263.771C87.428,160.618,180.939,78.661,292.786,21.432,404.633-35.09,533.9-67.59,664.081-67.59,795.18-68.3,925.363-37.209,1025.292,22.846Z" transform="translate(-4486.555 13713.042)" fill="#6862f4" opacity="0.07"/>
    <path id="Path_12" data-name="Path 12" d="M1025.292,22.846C1124.3,82.9,1193.062,171.923,1261.82,274.369,1329.662,377.522,1398.42,494.1,1386.5,612.8c-11,117.99-102.679,238.1-236.529,319.35S840.1,1056.494,682.417,1037.418c-158.6-19.076-298.87-99.62-436.386-180.164C109.43,776.71-25.336,696.166-66.591,593.719S-56.506,366.924,15,263.771C87.428,160.618,180.939,78.661,292.786,21.432,404.633-35.09,533.9-67.59,664.081-67.59,795.18-68.3,925.363-37.209,1025.292,22.846Z" transform="translate(-4486.555 11526.042)" fill="#1b8a00" opacity="0.07"/>
    <path id="Path_1105" data-name="Path 1105" d="M1025.292,22.846C1124.3,82.9,1193.062,171.923,1261.82,274.369,1329.662,377.522,1398.42,494.1,1386.5,612.8c-11,117.99-102.679,238.1-236.529,319.35S840.1,1056.494,682.417,1037.418c-158.6-19.076-298.87-99.62-436.386-180.164C109.43,776.71-25.336,696.166-66.591,593.719S-56.506,366.924,15,263.771C87.428,160.618,180.939,78.661,292.786,21.432,404.633-35.09,533.9-67.59,664.081-67.59,795.18-68.3,925.363-37.209,1025.292,22.846Z" transform="translate(-5658.924 16728.543)" fill="#1b8a00" opacity="0.07"/>
    <path id="Path_183" data-name="Path 183" d="M1025.292,22.846C1124.3,82.9,1193.062,171.923,1261.82,274.369,1329.662,377.522,1398.42,494.1,1386.5,612.8c-11,117.99-102.679,238.1-236.529,319.35S840.1,1056.494,682.417,1037.418c-158.6-19.076-298.87-99.62-436.386-180.164C109.43,776.71-25.336,696.166-66.591,593.719S-56.506,366.924,15,263.771C87.428,160.618,180.939,78.661,292.786,21.432,404.633-35.09,533.9-67.59,664.081-67.59,795.18-68.3,925.363-37.209,1025.292,22.846Z" transform="translate(-4486.555 14372.542)" fill="#1b8a00" opacity="0.07"/>
    <path id="Path_6" data-name="Path 6" d="M795.15,19.04c78.42,57.528,132.879,142.806,187.337,240.942,53.732,98.813,108.191,210.486,98.751,324.189C1072.525,697.2,999.914,812.254,893.9,890.087S648.475,1009.2,523.584,990.931C397.966,972.657,286.871,895.5,177.954,818.346,69.763,741.19-36.976,664.034-69.651,565.9s7.987-217.254,64.624-316.067C52.336,151.017,126.4,72.508,214.985,17.687,303.571-36.457,405.953-67.59,509.061-67.59,612.9-68.267,716-38.488,795.15,19.04Z" transform="translate(-3964.425 10206.218)" fill="#d5bb21" opacity="0.11"/>
    <path id="Path_1107" data-name="Path 1107" d="M795.15,19.04c78.42,57.528,132.879,142.806,187.337,240.942,53.732,98.813,108.191,210.486,98.751,324.189C1072.525,697.2,999.914,812.254,893.9,890.087S648.475,1009.2,523.584,990.931C397.966,972.657,286.871,895.5,177.954,818.346,69.763,741.19-36.976,664.034-69.651,565.9s7.987-217.254,64.624-316.067C52.336,151.017,126.4,72.508,214.985,17.687,303.571-36.457,405.953-67.59,509.061-67.59,612.9-68.267,716-38.488,795.15,19.04Z" transform="translate(-6313.425 13958.042)" fill="#d5bb21" opacity="0.11"/>
    <path id="Path_1106" data-name="Path 1106" d="M795.15,19.04c78.42,57.528,132.879,142.806,187.337,240.942,53.732,98.813,108.191,210.486,98.751,324.189C1072.525,697.2,999.914,812.254,893.9,890.087S648.475,1009.2,523.584,990.931C397.966,972.657,286.871,895.5,177.954,818.346,69.763,741.19-36.976,664.034-69.651,565.9s7.987-217.254,64.624-316.067C52.336,151.017,126.4,72.508,214.985,17.687,303.571-36.457,405.953-67.59,509.061-67.59,612.9-68.267,716-38.488,795.15,19.04Z" transform="translate(-5894.444 16129.555)" fill="#d5bb21" opacity="0.11"/>
    <line id="Line_1" data-name="Line 1" x1="80" transform="translate(-5103.859 12420.44)" fill="none" stroke="#6862f4" stroke-linecap="round" stroke-width="3" stroke-dasharray="8" opacity="0"/>
    <line id="Line_3" data-name="Line 3" x1="80" transform="translate(-5103.859 12910.44)" fill="none" stroke="#6862f4" stroke-linecap="round" stroke-width="3" stroke-dasharray="8" opacity="0"/>
    <line id="Line_4" data-name="Line 4" x1="80" transform="translate(-5103.859 13400.44)" fill="none" stroke="#6862f4" stroke-linecap="round" stroke-width="3" stroke-dasharray="8" opacity="0"/>
    <line id="Line_7" data-name="Line 7" x1="80" transform="translate(-5103.859 13890.44)" fill="none" stroke="#6862f4" stroke-linecap="round" stroke-width="3" stroke-dasharray="8" opacity="0"/>
    <line id="Line_2" data-name="Line 2" y1="490" transform="translate(-5103.859 12420.94)" fill="none" stroke="#6862f4" stroke-linecap="round" stroke-width="3" stroke-dasharray="8" opacity="0"/>
    <line id="Line_5" data-name="Line 5" y1="490" transform="translate(-5103.859 12910.94)" fill="none" stroke="#6862f4" stroke-linecap="round" stroke-width="3" stroke-dasharray="8" opacity="0"/>
    <path id="Path_1100" data-name="Path 1100" d="M0,490V0" transform="translate(-5103.859 13400.94)" fill="none" stroke="#6862f4" stroke-linecap="round" stroke-width="3" stroke-dasharray="8" opacity="0"/>
  </g>
</svg>
