<svg width="40" height="40" viewBox="0 0 40 40" fill="none" xmlns="http://www.w3.org/2000/svg">
<path d="M34.7637 30.3011V26.1135L37.685 23.1154C39.4383 21.4318 39.4383 18.5682 37.685 16.8846L34.7637 13.8865V9.62712C34.7637 7.27043 32.7331 5.25324 30.3317 5.25324H26.0932L23.1086 2.32191C21.4296 0.559358 18.5703 0.559363 16.8914 2.32193L13.9068 5.25324H9.73982C7.26709 5.25324 5.30785 7.19845 5.30785 9.62712V13.8801L2.31927 16.8806C0.561656 18.5636 0.560246 21.4305 2.31504 23.1154L5.23635 26.1135V30.3011C5.23635 32.7024 7.16831 34.7468 9.66832 34.7468H13.9068L16.8914 37.678C18.5703 39.4406 21.4297 39.4407 23.1086 37.6781L26.0932 34.7468H30.3317C32.7331 34.7468 34.7637 32.8014 34.7637 30.3011Z" fill="#F7F0FF" stroke="#6E1ECF" stroke-width="2"/>
<path d="M17.5 16C18.3125 16 19 15.3438 19 14.5C19 13.6875 18.3125 13 17.5 13C16.6562 13 16 13.6875 16 14.5C16 15.3438 16.6562 16 17.5 16ZM16 18C16 17.1875 15.3125 16.5 14.5 16.5C13.6562 16.5 13 17.1875 13 18C13 18.8438 13.6562 19.5 14.5 19.5C15.3125 19.5 16 18.8438 16 18ZM22.5 16C23.3125 16 24 15.3438 24 14.5C24 13.6875 23.3125 13 22.5 13C21.6562 13 21 13.6875 21 14.5C21 15.3438 21.6562 16 22.5 16ZM25.5 16.5C24.6562 16.5 24 17.1875 24 18C24 18.8438 24.6562 19.5 25.5 19.5C26.3125 19.5 27 18.8438 27 18C27 17.1875 26.3125 16.5 25.5 16.5ZM24.4688 21.4062C23.625 20.9688 23 19.5 22.375 18.375C21.875 17.4688 20.9375 17 20 17C19.0312 17 18.0938 17.4688 17.5938 18.3438C16.9688 19.5 16.3438 20.9375 15.5 21.4062C14.5938 21.9375 14 22.9062 14 24C14 25.6875 15.3438 27 17 27C18.5938 27.0625 19.25 26 20 26C20.7188 26 21.375 27.0625 23 27C24.6562 27 26 25.6562 26 24C26 22.9062 25.375 21.9375 24.4688 21.4062Z" fill="#6E1ECF"/>
</svg>
