<svg width="40" height="40" viewBox="0 0 40 40" fill="none" xmlns="http://www.w3.org/2000/svg">
<path d="M34.7637 30.3011V26.1135L37.685 23.1154C39.4383 21.4318 39.4383 18.5682 37.685 16.8846L34.7637 13.8865V9.62712C34.7637 7.27043 32.7331 5.25324 30.3317 5.25324H26.0932L23.1086 2.32191C21.4296 0.559358 18.5703 0.559363 16.8914 2.32193L13.9068 5.25324H9.73982C7.26709 5.25324 5.30785 7.19845 5.30785 9.62712V13.8801L2.31927 16.8806C0.561656 18.5636 0.560246 21.4305 2.31504 23.1154L5.23635 26.1135V30.3011C5.23635 32.7024 7.16831 34.7468 9.66832 34.7468H13.9068L16.8914 37.678C18.5703 39.4406 21.4297 39.4407 23.1086 37.6781L26.0932 34.7468H30.3317C32.7331 34.7468 34.7637 32.8014 34.7637 30.3011Z" fill="#F7F0FF" stroke="#6E1ECF" stroke-width="2"/>
<path d="M17 22H17.375V22.5C17.375 22.7812 17.5938 23 17.875 23H19.125C19.375 23 19.625 22.7812 19.625 22.5V22H20C20.5312 22 21 21.5625 21 21V14C21 13.4688 20.5312 13 20 13V12.5C20 12.25 19.75 12 19.5 12H17.5C17.2188 12 17 12.25 17 12.5V13C16.4375 13 16 13.4688 16 14V21C16 21.5625 16.4375 22 17 22ZM26.5 26H26.4375C27.4062 24.9375 28 23.5625 28 22C28 18.7188 25.2812 16 22 16V18C24.1875 18 26 19.8125 26 22C26 24.2188 24.1875 26 22 26H13.5C12.6562 26 12 26.6875 12 27.5C12 27.7812 12.2188 28 12.5 28H27.5C27.75 28 28 27.7812 28 27.5C28 26.6875 27.3125 26 26.5 26ZM15.25 25H21.75C21.875 25 22 24.9062 22 24.75V24.25C22 24.125 21.875 24 21.75 24H15.25C15.0938 24 15 24.125 15 24.25V24.75C15 24.9062 15.0938 25 15.25 25Z" fill="#6E1ECF"/>
</svg>
