<svg width="82" height="73" viewBox="0 0 82 73" fill="none" xmlns="http://www.w3.org/2000/svg">
<path d="M80.0625 39.0625L50.0625 72.0625C49.5 72.8125 48.75 73 48 73C47.25 73 46.5 72.8125 45.9375 72.25C44.625 71.125 44.625 69.25 45.75 68.125L71.0625 40H3C1.3125 40 0 38.6875 0 37.1875C0 35.6875 1.3125 34 3 34H71.0625L45.75 6.0625C44.625 4.9375 44.625 3.0625 45.9375 1.9375C47.0625 0.8125 48.9375 0.8125 50.0625 2.125L80.0625 35.125C81.1875 36.25 81.1875 37.9375 80.0625 39.0625Z" fill="#6E1ECF"/>
</svg>
