<svg width="82" height="73" viewBox="0 0 82 73" fill="none" xmlns="http://www.w3.org/2000/svg">
<path d="M81.8125 37C81.8125 38.6875 80.5 40 79 40H10.75L36.0625 68.125C37.1875 69.25 37.1875 71.125 35.875 72.25C35.3125 72.8125 34.5625 73 34 73C33.0625 73 32.3125 72.8125 31.75 72.0625L1.75 39.0625C0.625 37.9375 0.625 36.25 1.75 35.125L31.75 2.125C32.875 0.8125 34.75 0.8125 35.875 1.9375C37.1875 3.0625 37.1875 4.9375 36.0625 6.0625L10.75 34H79C80.5 34 81.8125 35.5 81.8125 37Z" fill="#6E1ECF"/>
</svg>
