<svg width="11" height="11" viewBox="0 0 11 11" fill="none" xmlns="http://www.w3.org/2000/svg">
<path d="M7.47656 4.35156L5.25 6.60156L3 4.35156C2.76562 4.14062 2.41406 4.14062 2.20312 4.35156C1.96875 4.58594 1.96875 4.9375 2.20312 5.14844L4.82812 7.77344C4.94531 7.89062 5.08594 7.9375 5.25 7.9375C5.39062 7.9375 5.53125 7.89062 5.625 7.77344L8.25 5.14844C8.48438 4.9375 8.48438 4.58594 8.25 4.375C8.03906 4.14062 7.6875 4.14062 7.47656 4.35156ZM9 0.25H1.5C0.65625 0.25 0 0.929688 0 1.75V9.25C0 10.0938 0.65625 10.75 1.5 10.75H9C9.82031 10.75 10.5 10.0938 10.5 9.25V1.75C10.5 0.929688 9.82031 0.25 9 0.25ZM9.375 9.25C9.375 9.46094 9.1875 9.625 9 9.625H1.5C1.28906 9.625 1.125 9.46094 1.125 9.25V1.75C1.125 1.5625 1.28906 1.375 1.5 1.375H9C9.1875 1.375 9.375 1.5625 9.375 1.75V9.25Z" fill="#6E1ECF"/>
</svg>
