<svg width="40" height="40" viewBox="0 0 40 40" fill="none" xmlns="http://www.w3.org/2000/svg">
<path d="M34.7637 30.3011V26.1135L37.685 23.1154C39.4383 21.4318 39.4383 18.5682 37.685 16.8846L34.7637 13.8865V9.62712C34.7637 7.27043 32.7331 5.25324 30.3317 5.25324H26.0932L23.1086 2.32191C21.4296 0.559358 18.5703 0.559363 16.8914 2.32193L13.9068 5.25324H9.73982C7.26709 5.25324 5.30785 7.19845 5.30785 9.62712V13.8801L2.31927 16.8806C0.561656 18.5636 0.560246 21.4305 2.31504 23.1154L5.23635 26.1135V30.3011C5.23635 32.7024 7.16831 34.7468 9.66832 34.7468H13.9068L16.8914 37.678C18.5703 39.4406 21.4297 39.4407 23.1086 37.6781L26.0932 34.7468H30.3317C32.7331 34.7468 34.7637 32.8014 34.7637 30.3011Z" fill="#F7F0FF" stroke="#6E1ECF" stroke-width="2"/>
<path d="M25.9688 12H23.9688C22.6875 12 21.5312 12.5 20.6562 13.2812C21.4375 14.2812 21.9375 15.5312 21.9375 16.9062C24.25 16.4375 25.9688 14.4375 25.9688 12ZM18.9688 17V20C18.9688 20.5625 19.4375 21 19.9688 21C20.4688 21 20.9688 20.5625 20.9688 20.0312V17C20.9688 14.25 18.7188 12 15.9688 12H13.9688C13.9688 14.7812 16.2188 17 18.9688 17ZM28.75 22.5312C28.3438 21.9688 27.5625 21.8438 27 22.25L23.25 25.0312H19.4688C19.2188 25.0312 19 24.7812 19 24.5312C19 24.25 19.25 24.0312 19.4688 24.0312H21.9375C22.4062 24.0312 22.875 23.6875 22.9688 23.1875C23.0625 22.5625 22.5938 22.0312 21.9688 22.0312H16.9688C16.1562 22.0312 15.2812 22.3125 14.625 22.8438L13.1875 24.0312L11.4688 24C11.1875 24 11 24.2188 11 24.5V27.5C11 27.7812 11.2188 28 11.4688 28H22.2812C22.9688 28 23.6562 27.7812 24.1875 27.375L28.4375 24.2812C29.0312 23.875 29.1562 23.0938 28.75 22.5312Z" fill="#6E1ECF"/>
</svg>
