<svg width="40" height="40" viewBox="0 0 40 40" fill="none" xmlns="http://www.w3.org/2000/svg">
<path d="M34.7637 30.3011V26.1135L37.685 23.1154C39.4383 21.4318 39.4383 18.5682 37.685 16.8846L34.7637 13.8865V9.62712C34.7637 7.27043 32.7331 5.25324 30.3317 5.25324H26.0932L23.1086 2.32191C21.4296 0.559358 18.5703 0.559363 16.8914 2.32193L13.9068 5.25324H9.73982C7.26709 5.25324 5.30785 7.19845 5.30785 9.62712V13.8801L2.31927 16.8806C0.561656 18.5636 0.560246 21.4305 2.31504 23.1154L5.23635 26.1135V30.3011C5.23635 32.7024 7.16831 34.7468 9.66832 34.7468H13.9068L16.8914 37.678C18.5703 39.4406 21.4297 39.4407 23.1086 37.6781L26.0932 34.7468H30.3317C32.7331 34.7468 34.7637 32.8014 34.7637 30.3011Z" fill="#F7F0FF" stroke="#6E1ECF" stroke-width="2"/>
<path d="M27.9375 25.1875C27.75 24.6875 27.1875 24.4062 26.6562 24.5625L26.0625 24.7812L24.75 21.6562C24.5938 21.25 24.25 21 23.8438 21H20.7812L20.4375 19.5H22.5C23.0312 19.5 23.5 19.0625 23.5 18.5C23.5 17.9688 23.0312 17.5 22.5 17.5H20.0312L19.9688 17.3125C19.8438 16.4688 19.0938 15.9062 18.2812 16.0312C17.4375 16.1562 16.875 16.9062 17 17.7188L17.75 22.125C17.7812 22.625 18.2188 23 18.75 23H23.1562L24.5625 26.375C24.7188 26.7812 25.0938 27 25.5 27C25.5938 27 25.6875 27 25.8125 26.9688L27.3125 26.4688C27.8125 26.2812 28.0938 25.7188 27.9375 25.1875ZM17 26.5C15.0625 26.5 13.5 24.9375 13.5 23C13.5 21.3125 14.6875 19.9062 16.3125 19.5938L16.0625 18.0938C13.75 18.5312 12 20.5625 12 23C12 25.7812 14.2188 28 17 28C19.4062 28 21.4062 26.3125 21.875 24H20.3438C19.875 25.4688 18.5625 26.5 17 26.5ZM18 15C18.8125 15 19.5 14.3438 19.5 13.5C19.5 12.6875 18.8125 12 18 12C17.1562 12 16.5 12.6875 16.5 13.5C16.5 14.3438 17.1562 15 18 15Z" fill="#6E1ECF"/>
</svg>
