<svg width="18" height="18" viewBox="0 0 18 18" fill="none" xmlns="http://www.w3.org/2000/svg">
<path d="M6.53906 1.19922C4.18359 1.90234 2.25 3.66016 1.26562 5.875H4.78125C5.09766 3.94141 5.73047 2.28906 6.53906 1.19922ZM5.625 9.25C5.625 10.0586 5.66016 10.7969 5.73047 11.5H12.2344C12.3047 10.7969 12.375 10.0586 12.375 9.25C12.375 8.47656 12.3047 7.73828 12.2344 7H5.73047C5.66016 7.73828 5.625 8.47656 5.625 9.25ZM12.0586 5.875C11.4961 2.78125 10.1953 0.8125 9 0.8125C7.76953 0.8125 6.46875 2.78125 5.90625 5.875H12.0586ZM16.6992 5.875C15.7148 3.66016 13.7812 1.90234 11.4258 1.19922C12.2344 2.28906 12.8672 3.94141 13.1836 5.875H16.6992ZM11.4258 17.3359C13.7812 16.6328 15.7148 14.875 16.6992 12.625H13.1836C12.8672 14.5938 12.2344 16.2461 11.4258 17.3359ZM17.1211 7H13.3594C13.4297 7.73828 13.4648 8.47656 13.4648 9.25C13.4648 10.0586 13.4297 10.7969 13.3594 11.5H17.1211C17.2969 10.7969 17.4023 10.0586 17.4023 9.25C17.4023 8.47656 17.2969 7.73828 17.1211 7ZM5.90625 12.625C6.46875 15.7539 7.76953 17.6875 8.96484 17.6875C10.1953 17.6875 11.4961 15.7539 12.0586 12.625H5.90625ZM4.5 9.25C4.5 8.47656 4.53516 7.73828 4.60547 7H0.84375C0.667969 7.73828 0.527344 8.47656 0.527344 9.25C0.527344 10.0586 0.667969 10.7969 0.84375 11.5H4.60547C4.53516 10.7969 4.5 10.0586 4.5 9.25ZM1.26562 12.625C2.25 14.875 4.14844 16.6328 6.53906 17.3359C5.73047 16.2461 5.09766 14.5938 4.78125 12.625H1.26562Z" fill="#BF52F2"/>
</svg>
