<svg width="40" height="40" viewBox="0 0 40 40" fill="none" xmlns="http://www.w3.org/2000/svg">
<path d="M34.7637 30.3011V26.1135L37.685 23.1154C39.4383 21.4318 39.4383 18.5682 37.685 16.8846L34.7637 13.8865V9.62712C34.7637 7.27043 32.7331 5.25324 30.3317 5.25324H26.0932L23.1086 2.32191C21.4296 0.559358 18.5703 0.559363 16.8914 2.32193L13.9068 5.25324H9.73982C7.26709 5.25324 5.30785 7.19845 5.30785 9.62712V13.8801L2.31927 16.8806C0.561656 18.5636 0.560246 21.4305 2.31504 23.1154L5.23635 26.1135V30.3011C5.23635 32.7024 7.16831 34.7468 9.66832 34.7468H13.9068L16.8914 37.678C18.5703 39.4406 21.4297 39.4407 23.1086 37.6781L26.0932 34.7468H30.3317C32.7331 34.7468 34.7637 32.8014 34.7637 30.3011Z" fill="#F7F0FF" stroke="#6E1ECF" stroke-width="2"/>
<path d="M22 19.625L20.4375 22.75C20.25 23.125 19.7188 23.0938 19.5312 22.7188L17.75 18.7812L16.8125 21.0312L13.75 21L19.25 26.7188C19.6562 27.125 20.3125 27.125 20.6875 26.7188L26.2188 21L22.7188 21.0312L22 19.625ZM26.4688 13.9688C24.75 12.5 22.1562 12.7812 20.5938 14.375L20 15.0312L19.375 14.375C17.8125 12.7812 15.2188 12.5 13.5 13.9688C11.7188 15.5312 11.5 18.1875 12.875 20H16.1562L17.2812 17.3125C17.4375 16.9062 18 16.9062 18.1875 17.3125L20 21.3438L21.5312 18.2812C21.7188 17.9375 22.25 17.9375 22.4375 18.2812L23.3125 20.0312H27.0938C28.4688 18.1875 28.25 15.5312 26.4688 13.9688Z" fill="#6E1ECF"/>
</svg>
