<svg width="18" height="16" viewBox="0 0 18 16" fill="none" xmlns="http://www.w3.org/2000/svg">
<path d="M9 7.75C9 7.34375 8.65625 7 8.25 7H3.75C3.3125 7 3 7.34375 3 7.75C3 8.1875 3.3125 8.5 3.75 8.5H8.25C8.65625 8.5 9 8.1875 9 7.75ZM8.875 14.5H2C1.71875 14.5 1.5 14.2812 1.5 14V2C1.5 1.75 1.71875 1.5 2 1.5H10C10.25 1.5 10.5 1.75 10.5 2V6.90625C10.9375 6.625 11.4375 6.375 12 6.21875V2C12 0.90625 11.0938 0 10 0H2C0.875 0 0 0.90625 0 2V14C0 15.125 0.875 16 2 16H10C10.0938 16 10.1875 16 10.2812 16C9.71875 15.5938 9.25 15.0938 8.875 14.5ZM3.75 10C3.3125 10 3 10.3438 3 10.75C3 11.1875 3.3125 11.5 3.75 11.5H5.25C5.65625 11.5 6 11.1875 6 10.75C6 10.3438 5.65625 10 5.25 10H3.75ZM8.25 4H3.75C3.3125 4 3 4.34375 3 4.75C3 5.1875 3.3125 5.5 3.75 5.5H8.25C8.65625 5.5 9 5.1875 9 4.75C9 4.34375 8.65625 4 8.25 4ZM13.5 7C11 7 9 9.03125 9 11.5C9 14 11 16 13.5 16C15.9688 16 18 14 18 11.5C18 9.03125 15.9688 7 13.5 7ZM15.5938 10.6875L13.25 13C13.1562 13.0938 13.0312 13.1562 12.9062 13.1562C12.7812 13.1562 12.6562 13.0938 12.5625 13L11.375 11.8438C11.1875 11.6562 11.1875 11.3438 11.375 11.125C11.5625 10.9375 11.9062 10.9375 12.0938 11.125L12.9062 11.9375L14.875 9.96875C15.0625 9.78125 15.4062 9.78125 15.5938 9.96875C15.7812 10.1562 15.7812 10.5 15.5938 10.6875Z" fill="#6E1ECF"/>
</svg>
