<svg width="40" height="40" viewBox="0 0 40 40" fill="none" xmlns="http://www.w3.org/2000/svg">
<path d="M34.7637 30.3011V26.1135L37.685 23.1154C39.4383 21.4318 39.4383 18.5682 37.685 16.8846L34.7637 13.8865V9.62712C34.7637 7.27043 32.7331 5.25324 30.3317 5.25324H26.0932L23.1086 2.32191C21.4296 0.559358 18.5703 0.559363 16.8914 2.32193L13.9068 5.25324H9.73982C7.26709 5.25324 5.30785 7.19845 5.30785 9.62712V13.8801L2.31927 16.8806C0.561656 18.5636 0.560246 21.4305 2.31504 23.1154L5.23635 26.1135V30.3011C5.23635 32.7024 7.16831 34.7468 9.66832 34.7468H13.9068L16.8914 37.678C18.5703 39.4406 21.4297 39.4407 23.1086 37.6781L26.0932 34.7468H30.3317C32.7331 34.7468 34.7637 32.8014 34.7637 30.3011Z" fill="#F7F0FF" stroke="#6E1ECF" stroke-width="2"/>
<path d="M22.3125 19.5938L18.9688 18.5625C18.5625 18.4375 18.1562 18.6562 18.0312 19.0312C17.9062 19.4375 18.125 19.8438 18.5 19.9688L20 20.5H13.75C13.4062 20.5 13.0625 20.75 13 21.125C12.9062 21.5938 13.2812 22 13.75 22H17.75C17.875 22 18 22.125 18 22.25C18 22.4062 17.875 22.5 17.75 22.5H12.75C12.4062 22.5 12.0625 22.75 12 23.125C11.9062 23.5938 12.2812 24 12.75 24H17.75C17.875 24 18 24.125 18 24.25C18 24.4062 17.875 24.5 17.75 24.5H13.75C13.4062 24.5 13.0625 24.75 13 25.125C12.9062 25.5938 13.2812 26 13.75 26H17.75C17.875 26 18 26.125 18 26.25C18 26.4062 17.875 26.5 17.75 26.5H14.75C14.4062 26.5 14.0625 26.75 14 27.125C13.9062 27.5938 14.2812 28 14.75 28H21.25C23.3125 28 25 26.3438 25 24.25V23.25C25 21.5938 23.9062 20.125 22.3125 19.5938ZM18.1562 17.625C18.3438 17.5625 18.5312 17.5312 18.75 17.5312C18.9062 17.5312 19.0938 17.5312 19.25 17.5938L19.75 17.75L19.0938 15.6875C19 15.3438 18.6562 15.0938 18.3125 15.125C17.8125 15.1875 17.5312 15.6562 17.6562 16.0938L18.1562 17.625ZM27.2188 16.5312C26.7812 16.5312 26.4688 16.875 26.4688 17.2812L26.4062 18.8438L24.5312 12.9062C24.4062 12.5625 24.0625 12.3438 23.7188 12.375C23.2188 12.4375 22.9375 12.9062 23.0938 13.3438L24.2812 17.1562C24.3438 17.2812 24.25 17.4375 24.125 17.4688C24 17.5 23.8438 17.4375 23.8125 17.3125L22.3125 12.5625C22.2188 12.2188 21.875 11.9688 21.5 12.0312C21.0312 12.0938 20.75 12.5625 20.875 13L22.2188 17.3125C22.2812 17.4375 22.1875 17.5625 22.0625 17.625C21.9375 17.6562 21.7812 17.5938 21.75 17.4375L20.7188 14.125C20.5938 13.7812 20.25 13.5312 19.9062 13.5625C19.4062 13.625 19.125 14.0938 19.2812 14.5625L20.3438 17.9375L22.625 18.625C24.625 19.3125 26 21.1562 26 23.25V24.125C27.1875 23.4688 27.9688 22.2188 28 20.8125V17.2812C27.9688 16.875 27.625 16.5312 27.2188 16.5312Z" fill="#6E1ECF"/>
</svg>
