<svg width="18" height="16" viewBox="0 0 18 16" fill="none" xmlns="http://www.w3.org/2000/svg">
<path d="M16.1367 4.59375C16.1367 4.76953 16.1367 4.91016 16.1367 5.08594C16.1367 9.97266 12.4453 15.5625 5.66016 15.5625C3.55078 15.5625 1.61719 14.9648 0 13.9102C0.28125 13.9453 0.5625 13.9805 0.878906 13.9805C2.60156 13.9805 4.18359 13.3828 5.44922 12.3984C3.83203 12.3633 2.46094 11.3086 2.00391 9.83203C2.25 9.86719 2.46094 9.90234 2.70703 9.90234C3.02344 9.90234 3.375 9.83203 3.65625 9.76172C1.96875 9.41016 0.703125 7.93359 0.703125 6.14062V6.10547C1.19531 6.38672 1.79297 6.52734 2.39062 6.5625C1.37109 5.89453 0.738281 4.76953 0.738281 3.50391C0.738281 2.80078 0.914062 2.16797 1.23047 1.64062C3.05859 3.85547 5.80078 5.33203 8.85938 5.50781C8.78906 5.22656 8.75391 4.94531 8.75391 4.66406C8.75391 2.625 10.4062 0.972656 12.4453 0.972656C13.5 0.972656 14.4492 1.39453 15.1523 2.13281C15.9609 1.95703 16.7695 1.64062 17.4727 1.21875C17.1914 2.09766 16.6289 2.80078 15.8555 3.25781C16.5938 3.1875 17.332 2.97656 17.9648 2.69531C17.4727 3.43359 16.8398 4.06641 16.1367 4.59375Z" fill="#BF52F2"/>
</svg>
